<?xml version="1.0" encoding="UTF-8" standalone="no"?>
<svg
   xmlns:dc="http://purl.org/dc/elements/1.1/"
   xmlns:cc="http://creativecommons.org/ns#"
   xmlns:rdf="http://www.w3.org/1999/02/22-rdf-syntax-ns#"
   xmlns:svg="http://www.w3.org/2000/svg"
   xmlns="http://www.w3.org/2000/svg"
   viewBox="0 0 2000 1333.3333"
   height="1333.3333"
   width="2000"
   xml:space="preserve"
   id="svg2"
   version="1.1"><metadata
     id="metadata8"><rdf:RDF><cc:Work
         rdf:about=""><dc:format>image/svg+xml</dc:format><dc:type
           rdf:resource="http://purl.org/dc/dcmitype/StillImage" /></cc:Work></rdf:RDF></metadata><defs
     id="defs6" /><g
     transform="matrix(1.3333333,0,0,-1.3333333,0,1333.3333)"
     id="g10"><g
       transform="scale(0.102249)"
       id="g12"><path
         id="path14"
         style="fill:#2f3b41;fill-opacity:1;fill-rule:nonzero;stroke:none"
         d="M 0,0 H 14670 V 9780 H 0 Z" /><path
         id="path16"
         style="fill:#e3e3e3;fill-opacity:1;fill-rule:nonzero;stroke:none"
         d="M 3533.65,9780 C 3148.7,9502.47 2822.95,9146.39 2379.65,8954.46 1894.25,8744.29 1333.93,8714.5 826.066,8862.07 508.508,8954.35 230.016,9116.88 0,9327.68 v -343.7 c 549.559,-404.78 1267.44,-594.09 2010.63,-442.37 405.75,82.84 761.82,269.51 1084.96,521.07 321.87,250.57 624.07,569.93 1014.02,717.32 h -575.96" /><path
         id="path18"
         style="fill:#e3e3e3;fill-opacity:1;fill-rule:nonzero;stroke:none"
         d="m 8649.99,4921.34 c -473.7,57.25 -933.33,-95.55 -1394.87,-173.45 -509.2,-85.95 -1011.12,-13.39 -1449.98,265.54 -859.24,546.09 -1105.71,1703.95 -562.09,2554.28 227.51,355.9 555.84,661.95 628.66,1093.8 57.04,338.38 -35.87,692.07 -245.83,965.03 -43.22,56.19 -89.45,107.21 -138.13,153.46 H 4952 c 224.45,-87.19 418.49,-245.52 536.36,-467.52 268.3,-505.33 -8.57,-939.86 -312.19,-1345.85 C 4667.8,7286.85 4492.84,6436.25 4866.86,5647.2 5203.96,4936.05 5961.7,4458.27 6753.79,4425.83 7267,4404.8 7751.54,4599.65 8257.52,4642.29 8814.46,4689.21 9285.45,4448.15 9685.13,4081.91 10367.7,3456.45 10758.3,2534.69 10726.7,1616.4 10706.9,1041.28 10512.6,479.582 10191.6,0 h 339.8 c 192.1,320.969 333.2,671.203 411.1,1033.95 169.1,786.88 35.5,1615.69 -342.1,2326.22 -381.8,718.54 -1094.88,1457.75 -1950.41,1561.17" /><path
         id="path20"
         style="fill:#d1ba77;fill-opacity:1;fill-rule:nonzero;stroke:none"
         d="M 2163.01,2309.96 C 2813.65,2255.99 3179.28,1850.59 3301.79,1230.47 3365.21,909.441 3318.14,585.676 3053.05,366.164 2824.5,176.922 2525.35,90.8281 2246.44,1.15625 2245.23,0.761719 2244.03,0.382813 2242.83,0 h 779.1 c 44.13,25.3906 87.21,52.3047 128.92,81.1836 730.28,505.6094 525.24,1709.2664 -111.4,2217.6364 -331.3,264.55 -771.86,303.07 -1182.21,306.51 -482.56,4.04 -947.334,-16.92 -1407.787,152.77 C 292.293,2816.02 141.938,2889.11 0,2975.18 v -324.59 c 224.863,-120.21 465.34,-211.72 715.367,-266.01 478.523,-103.9 964.093,-34.51 1447.643,-74.62" /><path
         id="path22"
         style="fill:#b5cfc7;fill-opacity:1;fill-rule:nonzero;stroke:none"
         d="M 1982.41,1156.71 C 2399.14,523.379 1402.66,327.57 1000.22,276.805 683.906,236.891 388.281,144.453 121.535,0 H 550.359 C 932.668,106.387 1338.07,90.043 1710.07,243.551 2015.68,369.664 2289.82,650.879 2228.9,1000.89 2073.63,1892.91 704.227,1743.36 66.2461,1810.38 43.9922,1812.72 21.9492,1815.49 0,1818.46 v -157.44 c 237.766,-32.43 484.035,-45.18 735.605,-57.89 417.525,-21.08 991.075,-57.73 1246.805,-446.42" /><path
         id="path24"
         style="fill:#e3e3e3;fill-opacity:1;fill-rule:nonzero;stroke:none"
         d="M 736.52,978.207 C 601.031,1215.76 266.5,1198.9 0,1185.16 v -166.52 c 128.41,9.26 260.043,17.56 375.801,-13.11 C 541.754,988.203 573.574,857.992 471.258,614.898 370.738,563.563 263.734,537 150.242,535.23 100.277,529.844 50.0547,527.16 0,522.684 V 341.801 c 80.4219,12 163.172,21.476 249.027,32.609 277.7,36.02 674.996,275 487.493,603.797" /><path
         id="path26"
         style="fill:#b9bdda;fill-opacity:1;fill-rule:nonzero;stroke:none"
         d="M 2264.73,1743.73 C 2635.38,1512.03 2932.09,1041.22 2699.57,614.078 2538.12,317.488 2187.43,194.348 1875.24,118.555 1678.91,70.875 1479.7,38.7188 1281.86,0 h 306.22 c 113.83,21.4688 227.36,44.3438 339.75,73 275.68,70.277 571.63,178.582 752.23,407.758 195.31,247.863 196.61,577.392 57.13,851.982 -162.86,320.64 -489.4,517.43 -819.11,640.89 C 1303.62,2203.71 625.121,2218.68 0,2406.98 v -53.07 c 368.59,-108.57 759.52,-164.23 1136.76,-235.57 387.35,-73.24 790.87,-163.86 1127.97,-374.61" /><path
         id="path28"
         style="fill:#d1ba77;fill-opacity:1;fill-rule:nonzero;stroke:none"
         d="m 2354.52,7633.86 c 182.59,58.45 361.87,126.84 537.66,202.88 104.9,45.39 222.66,123.84 333.89,146.39 108.39,21.98 319.99,-23.75 399.64,-117.56 38.83,-45.73 52.67,-145.54 65.77,-204.05 179.54,-801.52 -390.56,-1572 -379.5,-2371.72 22.01,-1590.79 2092.87,-2216.09 3407.74,-2102.64 829.84,71.61 1887.44,688.11 2615.74,41.79 582.24,-516.76 593.98,-1427.12 249.4,-2070.13 C 9323.77,671.633 8927.81,315.133 8492.63,0 h 293.89 c 332.04,263.805 632.89,562.477 859.24,921.473 343.73,545.107 453.24,1205.737 219.03,1814.677 -213.6,555.27 -684.72,939.81 -1298.82,954.73 -438.08,10.64 -857.83,-142.17 -1278.42,-240.24 -446.01,-104.02 -905.68,-133.86 -1361.44,-83.41 -839.03,92.86 -1803.18,463 -2244.7,1218.6 -464.15,794.35 51.39,1632.08 180.45,2440.37 85.16,533.39 -19.76,1391.61 -769.82,1086.69 C 2145.92,7728.25 1143.12,7371.53 124.461,7748.09 82.5,7763.6 40.9961,7780.6 0,7798.95 v -178.29 c 345.047,-140.82 723.602,-206.26 1107.2,-202.34 423.53,4.31 845.51,86.9 1247.32,215.54" /><path
         id="path30"
         style="fill:#9eb0cd;fill-opacity:1;fill-rule:nonzero;stroke:none"
         d="m 1849.01,6454.38 c 217.57,35.17 468.02,119.61 680.46,15.99 188.64,-92.01 272.32,-297.68 302.69,-491.06 57.42,-365.77 -102.78,-711.52 -177.34,-1063.09 -67.27,-317.23 -62.87,-628.81 63.32,-932.31 565.12,-1359.07 2511.37,-1452.32 3770.54,-1425.51 378.02,8.05 751.72,60.54 1128.86,75.57 357.57,14.25 804.78,-15.71 989.55,-372.6 171.06,-330.38 10.39,-752.58 -220.56,-1011.35 C 8126.57,958.801 7750.38,792.211 7405.84,620.133 7059.06,446.938 6727.54,245.477 6436.73,0 h 385.1 c 376.51,256.461 794.68,445.422 1201.45,684.563 496.39,291.835 947.74,772.197 875.73,1386.487 -66.63,568.22 -600.67,785.9 -1117.69,793.2 -338.48,4.77 -676.18,-51.32 -1013.68,-68.58 -446.03,-22.79 -893.79,-13.69 -1338.49,27.19 -808.24,74.29 -1751.16,224.18 -2285.02,893.59 -268.87,337.14 -353.25,720.8 -266.81,1139.33 68.12,329.95 208.98,649.72 199,991.82 -15.39,526.84 -348.03,944.48 -911.16,888.88 C 1816.89,6702.1 1484.18,6622.27 1131.14,6626.1 781.809,6629.87 433.563,6679.35 99.0273,6779.23 65.7539,6789.16 32.793,6799.77 0,6810.73 v -236.52 c 340.93,-106.59 700.574,-163.34 1053.86,-173.89 266.27,-7.96 532.39,11.59 795.15,54.06" /><path
         id="path32"
         style="fill:#b9bdda;fill-opacity:1;fill-rule:nonzero;stroke:none"
         d="m 14327.3,2790 c 2.4,6.6 2.7,14.12 -0.7,21.96 -313.5,717.52 -137.6,1511.12 -129.3,2263.63 7.5,671.23 -160.7,1298.15 -657.7,1778.97 -474.4,459.03 -1091.9,689.04 -1739.2,785.57 -373.5,55.7 -761.3,90.06 -1109.3,245.75 -339.2,151.75 -596.3,421.05 -761.66,747.05 -185.86,366.43 -244.6,754.6 -232.5,1147.07 h -59.51 c -7.88,-274.29 19.03,-548.07 99.77,-817.59 88.76,-296.31 238.6,-579.43 458.1,-802.25 238.5,-242.21 546.9,-380.78 876.8,-457.58 371.5,-86.4 755.6,-104.32 1126.5,-193.51 338.4,-81.41 663.4,-220.33 951.6,-413.59 292.3,-196.02 546.9,-451.37 720.1,-756.52 191.3,-336.93 259.4,-717.42 268.5,-1099.69 19.6,-816.48 -202.4,-1667.82 134.8,-2448.29 -3.5,-7.25 -4.3,-15.91 1,-25.03 100.2,-175.25 237.6,-310.77 395.4,-420.93 v 69.88 c -135.7,100.3 -254.1,221.78 -342.7,375.1" /><path
         id="path34"
         style="fill:#e3e3e3;fill-opacity:1;fill-rule:nonzero;stroke:none"
         d="m 12299.9,8999.35 c -385.7,90.39 -823.5,129.84 -1136.6,393.63 -129.3,108.99 -224.3,241.03 -291.7,387.02 H 10506 c 22.5,-62.95 48.4,-124.93 78.1,-185.68 328.6,-671.47 1008.6,-774.83 1674.8,-936.14 426.8,-103.38 844.8,-244.73 1244.1,-426.23 355.8,-161.81 776.6,-345 1047.8,-632.28 45.8,-48.66 85.3,-100.71 119.2,-155.42 v 513.05 c -355,311.37 -841.6,512.2 -1253.1,681.83 -362,149.21 -735.2,270.76 -1117,360.22" /><path
         id="path36"
         style="fill:#d1ba77;fill-opacity:1;fill-rule:nonzero;stroke:none"
         d="m 11880.7,9780 h -315.1 c 147.7,-112.29 318.8,-198.51 508.1,-249.22 591.6,-158.44 1197.2,-186.73 1780.2,-396.25 289.9,-104.19 582.5,-251.21 816.1,-451.26 v 217.82 c -414,304.7 -960.5,482.89 -1445.4,594.64 -427.8,98.57 -936.1,96.3 -1343.9,284.27" /><path
         id="path38"
         style="fill:#b5cfc7;fill-opacity:1;fill-rule:nonzero;stroke:none"
         d="m 13997,9780 c 240.6,-89.14 468.9,-202.39 673,-344.93 v 205.51 c -76.5,49.99 -155.7,96.38 -237.1,139.42 H 13997" /><path
         id="path40"
         style="fill:#b9bdda;fill-opacity:1;fill-rule:nonzero;stroke:none"
         d="m 14013.9,7127.12 c -446.5,380.8 -1004.6,621.93 -1572.2,767.14 -323.7,82.83 -653.3,113.15 -980.9,174.18 -363.7,67.74 -676.5,222.88 -913.6,507.81 -293.6,352.9 -411.9,769.92 -441.7,1203.75 h -60.2 c 19.4,-277.43 75.9,-550.25 193.2,-811.07 121.1,-269.51 302.1,-516.48 544.3,-692.27 302.5,-219.46 666.9,-266.69 1029,-317.85 1179.6,-166.63 2481.1,-725.73 2858.2,-1908.11 v 161.16 c -137,348.93 -355.2,658.6 -656.1,915.26" /><path
         id="path42"
         style="fill:#d1ba77;fill-opacity:1;fill-rule:nonzero;stroke:none"
         d="m 839.09,9780 c 601.75,-222.65 1262.48,-183.42 1874.14,0 H 839.09" /><path
         id="path44"
         style="fill:#d1ba77;fill-opacity:1;fill-rule:nonzero;stroke:none"
         d="m 13448.8,2227.69 c -301.4,784.88 -119.7,1640.68 -120.8,2454.14 -0.8,605.36 -96.7,1254.98 -477.2,1749.9 -425.1,553.01 -1105,710.76 -1764.3,819.35 -743.5,122.46 -1418.9,262.01 -1992.19,783.01 -531.8,483.29 -903.98,1101.52 -1339.32,1664.05 -21.17,27.36 -42.68,54.65 -64.38,81.86 h -295.02 c 865.27,-1002.11 1436.67,-2263.95 2854.21,-2606.09 694.9,-167.7 1501.8,-146.18 2103.7,-574.78 657.6,-468.22 760.7,-1346.54 741.4,-2085.32 -23.1,-886.14 -176.2,-1819.49 264.4,-2638.04 282.8,-525.61 756,-931.372 1310.7,-1150.043 V 973.68 c -551.1,243.02 -1003.6,687.24 -1221.2,1254.01" /><path
         id="path46"
         style="fill:#b9bdda;fill-opacity:1;fill-rule:nonzero;stroke:none"
         d="m 9123.7,9780 c -28.06,-78.71 -72.17,-150.97 -139.44,-213.74 -217.46,-202.96 -521.52,-1.29 -752.51,213.74 h -75.68 c 51.34,-47.34 104.51,-92.77 159.94,-135.56 131.73,-101.67 289.82,-220.46 465.35,-218.9 211.46,1.89 332.25,168.51 394.11,354.46 h -51.77" /><path
         id="path48"
         style="fill:#b5cfc7;fill-opacity:1;fill-rule:nonzero;stroke:none"
         d="m 6354.54,6043.96 c 330.23,-291.26 776.51,-338.42 1201.45,-343.76 538.29,-6.76 1045.69,-16.47 1552.35,-218.98 C 10167.5,5057.86 10919.4,4116.55 11235.5,3051.61 11506.7,2137.99 11561,949.031 11193.6,0 h 117.8 c 230.7,640.738 271.4,1372.55 224.7,2020.4 -127.9,1772.96 -1309.3,3583.59 -3234.66,3775.6 -544.53,54.3 -1152.13,-76.4 -1656.13,187.01 -454.33,237.46 -643.6,750.37 -640.13,1233.7 3.56,497.63 213.54,1068.9 640.41,1363.21 257.24,177.35 618.95,250.24 909.3,105.18 265.74,-132.77 420.69,-398.7 581.02,-633.52 558.03,-817.31 1306.1,-1342.28 2178.69,-1794.16 468.2,-242.51 952.1,-504.76 1262.8,-941.35 299.9,-421.36 401.5,-938.03 457.5,-1440 114.4,-1025.46 149.4,-1998.83 788.7,-2866.05 C 13124.2,602.273 13504,258.605 13936.3,0 h 233.7 c -572.7,301.391 -1062.5,751.152 -1406.7,1303.07 -567.3,909.8 -493.4,1924.48 -662.5,2938.32 -72.4,433.93 -209.3,862.25 -485.3,1214.12 -292.7,373.19 -708.1,619.24 -1123.9,838.28 -479.5,252.56 -957.58,490.75 -1374.88,840.03 -439.46,367.81 -739.19,808.27 -1078.08,1259.97 -234.6,312.7 -545.97,523.76 -955.53,473.1 -426.8,-52.78 -756.26,-352.95 -952.29,-715.39 -346.59,-640.75 -362.53,-1590.46 223.72,-2107.54" /><path
         id="path50"
         style="fill:#b9bdda;fill-opacity:1;fill-rule:nonzero;stroke:none"
         d="m 7566.21,6113.73 c 462.99,-55.68 908.31,-80.55 1352.02,-238.85 459.01,-163.77 884.85,-416.06 1255.17,-728.59 774.4,-653.4 1276.3,-1559.41 1513.1,-2529.73 202.9,-831.42 259.7,-1772.224 36.9,-2616.56 h 60.9 c 126.5,502.996 147.9,1038.7 118.7,1543.45 -106,1834.77 -1080,3664.06 -2887.1,4355.79 -409.29,156.66 -825.06,215.62 -1259.39,252.53 -466.62,39.66 -1017.87,147.9 -1123.03,682.22 -47.24,239.98 0.82,489.04 80.99,717.03 74.48,211.77 179.12,443.94 347.41,600.44 458.71,426.58 839.76,-175.72 1047.73,-526.07 C 8581.84,6829.9 9327.08,6255.97 10095.2,5754 c 403.4,-263.68 861.3,-488.98 1221.8,-809.37 419.1,-372.49 473.4,-890.31 492.2,-1415.44 34.5,-962.29 241.6,-1897.42 777.7,-2716.549 C 12782.4,513.727 13017.3,239.66 13283.7,0 h 85.3 c -175.4,152.234 -337.4,319.688 -483.9,500.012 -664.7,819.088 -974.8,1851.618 -1013.3,2888.798 -16.7,448.8 -13.9,938.84 -275.6,1327.99 -254.6,378.95 -702.6,598.61 -1081.1,836.56 -823.78,517.88 -1668.69,1077.28 -2222.15,1889.83 -200.03,293.67 -358.38,734.47 -718.82,875.68 -382.99,150.03 -667.68,-205.96 -812.69,-506.54 -168.29,-348.85 -296.28,-797.67 -126.91,-1169.65 166.45,-365.56 558.32,-484.04 931.68,-528.95" /><path
         id="path52"
         style="fill:#b9bdda;fill-opacity:1;fill-rule:nonzero;stroke:none"
         d="m 8433.55,6303.47 c -2.96,6.62 -8.61,12.22 -17.5,15.04 -56.87,18 -113.75,36.01 -170.62,54.01 -14.84,10.11 -29.36,20.88 -43.53,32.41 -15.14,12.32 -33.56,6.55 -43.42,-4.89 -116.43,36.86 -232.85,73.71 -349.28,110.57 -186.32,59 -382.11,106.99 -561.35,184.82 -231.87,100.69 -331.4,319.39 -329.15,561.96 2.08,223.94 146.39,486.07 406.16,477.86 384.78,-12.17 429.19,-548.89 617.28,-783.36 89.56,-111.65 211.93,-170.21 334.65,-239.29 91.93,-51.74 187.6,-112.64 239.01,-207.76 47.49,-87.81 9.82,-193.3 -82.25,-201.37 z m 121.35,246.94 c -94.02,150.73 -262.93,207.8 -407.08,298.67 -208.59,131.49 -270.96,342.06 -368.44,552.4 -126.33,272.6 -408.35,524.66 -709.11,306.1 -270.31,-196.44 -272.79,-664.93 -69.21,-910.1 132.8,-159.92 365.83,-206.5 555.36,-266.49 222.04,-70.3 444.09,-140.59 666.13,-210.89 92.53,-60.64 225.09,-119.85 316.7,-70.72 108.56,58.21 65.65,220.87 15.65,301.03" /><path
         id="path54"
         style="fill:#b9bdda;fill-opacity:1;fill-rule:nonzero;stroke:none"
         d="m 8252.32,6465.05 -94.06,57.29 c -15.52,9.46 -31.04,18.91 -46.55,28.36 0.76,11.98 -4.73,24.37 -19.57,29.06 -19.52,6.17 -39.03,12.35 -58.55,18.51 -21.15,12.89 -42.31,25.78 -63.47,38.66 -14.43,8.8 -28.01,3.09 -35.86,-7.23 -93.46,29.52 -186.94,59.02 -280.37,88.66 -119.07,37.78 -253.53,70.48 -345.97,159.18 -100.21,96.16 -159.2,304.82 -148.3,440.56 16.65,207.34 227.41,221.5 329.3,68 32.29,-48.65 51.69,-105.67 75.18,-158.34 75.52,-169.46 184.95,-314.31 338.49,-422.97 98.88,-69.97 227.61,-105.96 315.07,-190.42 52.8,-37.61 64.35,-87.38 34.66,-149.32 z m -29.3,219.01 c -72.14,55.98 -160.71,87.08 -238.36,134.54 -104.17,63.65 -195.66,149.31 -266.27,248.03 -97.56,136.41 -125.36,341.6 -266.73,444.03 -88.66,64.22 -208.95,73.13 -286.19,-13.14 -101.95,-113.88 -60.23,-290.37 -25.1,-422.09 41.38,-155.1 125.97,-264.45 274.22,-333.02 187.25,-86.61 397.68,-137.83 597.02,-197.55 39.17,-23.87 78.36,-47.72 117.53,-71.59 38.49,-23.44 85.54,-67.3 130.57,-72.95 24.46,-3.07 51.39,-4.44 71.02,14.88 78.58,77.33 -51.85,225.53 -107.71,268.86" /><path
         id="path56"
         style="fill:#b9bdda;fill-opacity:1;fill-rule:nonzero;stroke:none"
         d="m 12582.2,4049.7 c -8.1,-61.64 -10.8,-123.04 -11,-185.08 -0.2,-68.42 16.1,-278.15 -150.9,-113.84 -45.4,44.62 -62.4,156.46 -73.7,218.91 -12.9,71.17 -13.8,141.69 -7,212.17 14.7,-0.4 29.7,8.6 29.5,27.3 -5.4,468.73 -50.9,942.7 -350.5,1326.85 -121.7,156.26 -271.2,289.24 -431.7,405.97 -186.3,135.46 -394,230.77 -586.1,355.57 -66.4,43.12 -141,107.98 -140.3,195.22 1.1,140.98 159,215.69 279.3,223.52 132.4,8.6 274,-29.81 399,-69.96 239,-76.7 461,-205.1 646.3,-372.15 378.3,-340.96 585.2,-841.12 564.5,-1345.41 -12.4,-301 -129.1,-582.2 -167.4,-879.07 z m 226.4,948.47 c 0.1,282.96 -68.6,565 -198.1,817.47 -250.5,488.25 -744.1,852.17 -1293,943.53 -194.5,32.38 -486.9,0.03 -512.2,-246.31 -24.6,-240.48 324.4,-348.22 486.7,-445.41 302.1,-180.91 592.3,-402.63 777.6,-704.78 193.3,-315.32 231.1,-684.21 239.8,-1045.42 -4.7,-3.31 -8.6,-8.09 -10.2,-15.54 -27,-130.89 -30.5,-263.31 1.7,-393.88 21.8,-88.7 62.9,-243.93 160.7,-283.26 205.1,-82.49 164.2,280.85 171.7,367.08 29.9,341.53 175.1,660.14 175.3,1006.52" /><path
         id="path58"
         style="fill:#b9bdda;fill-opacity:1;fill-rule:nonzero;stroke:none"
         d="m 12594.6,4654.13 c -5.3,-34.94 -11.4,-155.15 -40.5,-178.39 -52.1,-41.56 -66.7,-25.73 -71.4,2.48 2.7,3.13 5.1,6.94 6.2,12.08 78.1,362.2 7.5,741.31 -191.3,1055.59 -95.4,150.63 -218.6,284.17 -364.5,388.66 -176.4,126.35 -390,189.7 -565.3,316.92 -33.3,23.67 -64.2,49.94 -92.7,78.8 -23.7,108.48 3.6,149.69 82,123.63 40.2,-0.13 89.1,-22.65 127.8,-34.96 124,-39.4 242.6,-94 353.5,-161.26 209,-126.84 389.9,-299.77 521.6,-504.21 141.3,-219.54 226.5,-474.49 246.9,-733.65 9.7,-121.81 6.2,-244.82 -12.3,-365.69 z m 74,295.61 c -15.9,429.2 -199.6,843.31 -515.6,1140.16 -152.1,142.85 -330.8,257.85 -524.9,337.25 -102.7,42.02 -329.3,151.17 -434.1,55.42 -205.2,-187.22 614.6,-528.47 710,-597.09 415.2,-298.52 623.4,-830.3 538.8,-1325.76 -12.8,-4.57 -23.6,-16.56 -20.3,-33.39 10.1,-53.9 -23.1,-145.04 39,-182.97 43.2,-26.35 75.1,-6.49 104,27.77 113.5,134.37 109.2,414.27 103.1,578.61" /><path
         id="path60"
         style="fill:#b9bdda;fill-opacity:1;fill-rule:nonzero;stroke:none"
         d="m 1493.62,2896.89 c 559.48,-101.33 1164.66,-5.25 1698.18,-228.61 493.81,-206.76 811.52,-684.34 927.49,-1187.54 68.02,-295.13 84.06,-627.826 -35.17,-912.099 C 3982.56,326.496 3784.16,144.156 3566.03,0 h 100.28 c 19.17,13.8203 38.24,27.8438 57.07,42.3086 183.4,141.0194 340.75,314.6404 425.22,530.7424 92.54,236.754 93.97,502.539 58.33,750.709 -61.73,429.72 -260.13,853.59 -591.61,1145.59 -372.45,328.11 -855.32,391.11 -1335.97,415.06 -563.52,28.05 -1094.91,93.64 -1610.217,335.58 C 427.039,3333.65 203.07,3474.6 0,3637.86 v -76.32 C 29.6563,3538.6 59.625,3516 90.1563,3494 504.629,3195.49 988.504,2988.36 1493.62,2896.89" /><path
         id="path62"
         style="fill:#b5cfc7;fill-opacity:1;fill-rule:nonzero;stroke:none"
         d="m 2236.48,6041.96 c -239.53,250.95 -597.19,151.22 -895.12,91.07 C 890.922,6042.09 431.41,6062.93 0,6181.87 v -178.74 c 190.645,-49.54 386.82,-81.37 586.16,-93.89 177.602,-11.16 355.641,-5.77 532.29,15.23 207.83,24.69 415.42,102.51 624.23,110.13 817.29,29.8 358.37,-848.74 184.32,-1212.49 -73.5,-153.64 -132.08,-312.77 -140.31,-484.18 -6.55,-136.55 40.4,-309.29 -38.68,-433.6 C 1666.73,3776.56 1513.14,3733.52 1372.98,3716.9 915.867,3662.67 481.469,3914.52 164.938,4216.64 106.773,4272.16 52.0703,4330.09 0,4389.83 v -250.16 c 400.652,-398.64 988.191,-735.62 1555.43,-561.79 269.71,82.65 408.5,275.75 410.76,550.66 2.33,283.3 43.06,480.84 175.04,733.84 82.92,158.95 174.1,315.53 217.92,490.34 57.75,230.42 51.17,507.12 -122.67,689.24" /><path
         id="path64"
         style="fill:#b9bdda;fill-opacity:1;fill-rule:nonzero;stroke:none"
         d="M 1628.34,5397.27 C 1457.93,5525.05 1159.11,5512.02 956.383,5522.36 672.949,5536.8 379.336,5546.05 123.43,5681.5 82.2305,5703.3 41.2227,5729.41 0,5757.28 v -69.76 c 30.7813,-19.41 62.0469,-38.07 94.3203,-55.1 190.6997,-100.59 402.8127,-136.26 616.1327,-152.96 251.125,-19.67 523.577,-1.22 766.477,-74.91 37.62,-9.67 73.13,-24.51 106.54,-44.53 l 71.43,-178.98 c -2.13,-63.74 -68.5,-133.96 -104.99,-182.72 -59.47,-79.42 -107.16,-149.68 -124,-248.67 -19.62,-115.49 7.05,-232.42 -3.29,-348.28 -20.26,-226.99 -239.91,-204.86 -402.54,-160.6 -255.549,69.56 -462.404,243.69 -632.463,437.39 C 248.613,4836.47 128.535,5009.88 0,5176.5 v -92.96 c 138.254,-181.66 268.727,-370.18 428.715,-534.27 159.137,-163.18 352.308,-301.86 576.025,-363.3 135.02,-37.08 365.96,-82.11 443.92,69.57 44.77,87.13 33.53,200.63 30.63,294.4 -5.43,176.04 27.38,296.27 133.82,437.02 94.05,124.32 165.28,297.79 15.23,410.31" /><path
         id="path66"
         style="fill:#b9bdda;fill-opacity:1;fill-rule:nonzero;stroke:none"
         d="m 1157.46,5141.68 c -75.4,53.38 -202.05,43.21 -288.772,52.87 -171.954,19.16 -343.911,38.31 -515.856,57.47 -36.832,4.09 -36.535,-52.77 0,-56.84 191.055,-21.29 382.109,-42.57 573.172,-63.85 119.856,-13.35 242.166,-41.37 246.736,-182.45 3.5,-108.26 -5.1,-218.2 -96.9,-287.58 -177.008,-133.78 -363.094,33.3 -481.758,164.86 -99.281,110.07 -195.734,222.79 -292.777,334.86 21.808,4.04 34.648,37.3 10.093,52.8 -50.144,31.64 -107.824,41.12 -166.003,30.18 -36.426,-6.86 -21,-61.64 15.335,-54.81 13.872,2.61 27.481,2.8 40.938,1.91 1.129,-2.27 1.969,-4.59 3.852,-6.75 100.5,-115.18 200.886,-230.46 301.503,-345.54 72.899,-83.39 146.985,-172.55 244.758,-229.04 143.782,-83.08 349.339,-79.2 434.929,80.18 59.42,110.63 91.13,366.51 -29.25,451.73" /><path
         id="path68"
         style="fill:#b9bdda;fill-opacity:1;fill-rule:nonzero;stroke:none"
         d="m 4401.56,0 h 69.07 c 25.88,44.5977 49.36,90.5234 69.76,137.91 109.7,254.856 104.12,517.625 81.22,788.93 -23.4,277.07 -53.19,583.96 100.68,833.11 164.45,266.29 491.66,304.03 775.8,353.71 327.17,57.22 654.06,116.39 981.62,171.43 319.9,53.76 662.05,100.55 978.97,4.4 271.81,-82.47 537.5,-284.4 602.44,-569.56 92.64,-406.77 -383.14,-489.64 -680.74,-547.34 -267.49,-51.83 -543,-86.9 -793.98,-197.746 C 6342.51,867.133 6145.16,688.152 5980.31,483.68 5857.13,330.867 5748.16,166.711 5643.95,0 h 68.73 c 127.9,204.316 262.53,406.488 428.36,581.598 232.08,245.027 511,383.687 840.85,457.032 283.6,63.05 587.04,84.39 856.39,198.73 526.33,223.4 232.45,805.09 -146.66,1014.88 -546.76,302.57 -1252.24,83.51 -1826.24,-16.86 -287.86,-50.33 -612.46,-70.61 -882.96,-186.68 -221.99,-95.28 -355.9,-280.69 -408.37,-510.27 -67.16,-293.93 4.43,-591.09 6.45,-887.188 C 4582.14,413.762 4518.91,195.211 4401.56,0" /><path
         id="path70"
         style="fill:#b5cfc7;fill-opacity:1;fill-rule:nonzero;stroke:none"
         d="m 4998.73,0 c 45.72,95.707 84.58,194.613 115.88,296.023 100.57,325.84 93.53,695.524 278.09,992.837 185.76,299.23 531.76,451.26 858.15,551.75 182.36,56.14 376.56,113.34 568.81,111.28 265.66,-2.85 574.56,-169.87 534.22,-458.71 -447.44,28.95 -928.58,34.11 -1302.23,-245.09 C 5658.23,954.117 5501.95,460.934 5255.06,58.9844 5242.91,39.2188 5230.56,19.582 5218.12,0 h 193.41 c 170.12,302.711 312.61,624.043 527.77,894.84 370.92,466.87 934.08,461.29 1483.26,423.27 38.34,-2.65 72.84,28.48 83.43,62.59 92.54,298.2 -95.87,589.3 -385.51,694.67 C 6747.33,2211.1 6274.77,2051.18 5928.41,1906.41 5595.89,1767.43 5307.64,1554.47 5164.64,1218.13 4996.14,821.832 5007.01,388.473 4806.26,0 h 192.47" /></g></g></svg>